# ProBuilder 5.0.7
# https://unity3d.com/unity/features/worldbuilding/probuilder
# 3/28/2025 11:57:45 AM

mtllib ./SteepRamp.mtl
o SteepRamp

g SteepRamp
v 0.7527888 -0.5618389 -0.6790466
v -0.4110837 -0.5618404 -0.6790533
v 0.7615129 0.5685309 -0.6789923
v -0.4110837 -0.5618403 0.67904
v 0.7615129 0.5685309 0.6791009
v 0.7527888 -0.5618389 0.6790466

vt -0.7527849 -0.5618715
vt 0.4110876 -0.561873
vt -0.7615091 0.5684983
vt 0.6858914 -0.6790533
vt 0.6858913 0.67904
vt -0.9428266 -0.6789923
vt -0.9428266 0.6791009
vt -0.4110798 -0.5618077
vt 0.7527927 -0.5618063
vt 0.7615168 0.5685635
vt -0.6790466 -0.5560123
vt 0.6790466 -0.5560123
vt -0.6791009 0.5743911
vt 0.6789923 0.5743911
vt 0.7527881 -0.6790466
vt -0.4110844 -0.6790533
vt 0.7527881 0.6790466
vt -0.4110844 0.67904

vn 5.735719E-06 4.799296E-05 -1
vn -0.6940252 0.7199507 -6.319509E-08
vn -5.735724E-06 -4.799296E-05 1
vn 0.9999702 -0.007717734 0
vn 1.280309E-06 -1 0

usemtl Lit
f 1/1/1 2/2/1 3/3/1
f 4/8/3 6/9/3 5/10/3
f 3/6/2 2/4/2 4/5/2
f 4/5/2 5/7/2 3/6/2
f 5/13/4 6/11/4 1/12/4
f 1/12/4 3/14/4 5/13/4
f 4/18/5 2/16/5 1/15/5
f 1/15/5 6/17/5 4/18/5

